<svg fill="none" height="420" viewBox="0 0 560 420" width="560" xmlns="http://www.w3.org/2000/svg" xmlns:xlink="http://www.w3.org/1999/xlink"><linearGradient id="a"><stop offset="0" stop-color="#ff6d37"/><stop offset="1" stop-color="#f6ab3b"/></linearGradient><linearGradient id="b" gradientUnits="userSpaceOnUse" x1="477.874" x2="502.379" xlink:href="#a" y1="192.072" y2="167.567"/><linearGradient id="c" gradientUnits="userSpaceOnUse" x1="443.631" x2="536.622" xlink:href="#a" y1="142.145" y2="142.145"/><linearGradient id="d" gradientUnits="userSpaceOnUse" x1="81.8432" x2="112.006" xlink:href="#a" y1="283.718" y2="253.564"/><linearGradient id="e" gradientUnits="userSpaceOnUse" x1="42.5692" x2="89.1631" xlink:href="#a" y1="242.464" y2="195.862"/><linearGradient id="f" gradientUnits="userSpaceOnUse" x1="230.942" x2="237.233" xlink:href="#a" y1="123.879" y2="117.588"/><g stroke-width="2"><path d="m454.088 61.1457 4.638 2.0657-4.749 1.8514-2.083 4.6457-1.834-4.7314-4.637-2.0657 4.748-1.8514 2.083-4.6542z" fill="#fff" stroke="#3a3836" stroke-miterlimit="10"/><path d="m325.45 355.023 4.637 2.066-4.749 1.851-2.083 4.654-1.834-4.74-4.637-2.065 4.74-1.852 2.091-4.645z" fill="#fff" stroke="#3a3836" stroke-miterlimit="10"/><path d="m24.1409 138.09 4.6371 2.066-4.7486 1.851-2.0914 4.646-1.8257-4.731-4.6371-2.066 4.74-1.851 2.0914-4.646z" fill="#fff" stroke="#3a3836" stroke-miterlimit="10"/><path d="m529.551 118.548h-95.982c-9.468 0-17.143 7.675-17.143 17.143v95.982c0 9.467 7.675 17.142 17.143 17.142h95.982c9.467 0 17.142-7.675 17.142-17.142v-95.982c0-9.468-7.675-17.143-17.142-17.143z" fill="#e6e6e6" stroke="#e6e6e6" stroke-miterlimit="10"/><path d="m380.64 321.62c-17.777 0-35.545-4.68-51.745-14.031l-12.437-7.183c-1.234-.711-1.654-2.28-.943-3.514.712-1.226 2.28-1.655 3.515-.943l12.437 7.183c30.788 17.777 67.559 17.777 98.347 0 30.789-17.777 49.174-49.62 49.174-85.174 0-1.423 1.149-2.571 2.571-2.571 1.423 0 2.572 1.148 2.572 2.571 0 37.414-19.346 70.919-51.745 89.622-16.2 9.352-33.977 14.031-51.746 14.031z" fill="#e6e6e6" stroke="#e6e6e6" stroke-miterlimit="10"/><path d="m529.551 118.548h-95.982c-9.468 0-17.143 7.675-17.143 17.143v95.982c0 9.467 7.675 17.142 17.143 17.142h95.982c9.467 0 17.142-7.675 17.142-17.142v-95.982c0-9.468-7.675-17.143-17.142-17.143z" fill="#e6e6e6" stroke="#e6e6e6" stroke-miterlimit="10"/><path d="m30.4493 317.386h95.9817c9.468 0 17.143-7.675 17.143-17.143v-95.982c0-9.468-7.675-17.143-17.143-17.143h-95.9817c-9.4677 0-17.1427 7.675-17.1427 17.143v95.982c0 9.468 7.675 17.143 17.1427 17.143z" fill="#e6e6e6" stroke="#e6e6e6" stroke-miterlimit="10"/><path d="m187.374 175.436v97.062c0 3.059 1.637 5.888 4.285 7.422l84.051 48.531c2.648 1.535 5.923 1.535 8.571 0l84.051-48.531c2.648-1.534 4.286-4.363 4.286-7.422v-97.062c0-3.06-1.638-5.889-4.286-7.423l-84.051-48.531c-2.648-1.535-5.923-1.535-8.571 0l-84.051 48.531c-2.648 1.534-4.285 4.363-4.285 7.423z" fill="#e6e6e6" stroke="#e6e6e6" stroke-miterlimit="10"/><path d="m78.4404 220.538c-1.4228 0-2.5714-1.149-2.5714-2.572 0-37.414 19.3456-70.919 51.745-89.622 32.4-18.702 71.091-18.702 103.491 0l12.437 7.183c1.234.712 1.654 2.28.943 3.514-.712 1.235-2.28 1.655-3.515.943l-12.437-7.182c-30.788-17.777-67.559-17.777-98.347 0-30.7886 17.776-49.1742 49.619-49.1742 85.173 0 1.423-1.1485 2.571-2.5714 2.571z" fill="#e6e6e6" stroke="#e6e6e6" stroke-miterlimit="10"/><path d="m69.869 211.967c-1.4228 0-2.5714-1.149-2.5714-2.571 0-37.414 19.3456-70.92 51.7454-89.622 32.4-18.703 71.091-18.703 103.49 0l12.437 7.182c1.235.712 1.655 2.28.943 3.515-.711 1.234-2.28 1.654-3.514.942l-12.437-7.182c-30.788-17.777-67.559-17.777-98.348 0-30.788 17.777-49.1736 49.619-49.1736 85.173 0 1.423-1.1485 2.572-2.5714 2.572z" fill="#fff4be" stroke="#3a3836"/><path d="m389.212 313.049c-17.777 0-35.546-4.68-51.746-14.032l-12.437-7.182c-1.234-.712-1.654-2.28-.942-3.515.711-1.225 2.28-1.654 3.514-.942l12.437 7.182c30.788 17.777 67.559 17.777 98.348 0 30.788-17.777 49.173-49.619 49.173-85.173 0-1.423 1.149-2.572 2.572-2.572s2.571 1.149 2.571 2.572c0 37.414-19.345 70.919-51.745 89.622-16.2 9.351-33.977 14.031-51.745 14.031z" fill="#fff4be" stroke="#3a3836"/><path d="m490.131 211.967c1.423 0 2.571-1.149 2.571-2.571 0-37.414-19.345-70.92-51.745-89.622-32.4-18.703-71.091-18.703-103.491 0l-12.437 7.182c-1.234.712-1.654 2.28-.942 3.515.711 1.234 2.28 1.654 3.514.942l12.437-7.182c30.788-17.777 67.559-17.777 98.348 0 30.788 17.777 49.173 49.619 49.173 85.173 0 1.423 1.149 2.572 2.572 2.572z" fill="#fcffe8" stroke="#e6e6e6" stroke-linecap="round" stroke-linejoin="round"/><path d="m170.788 313.049c17.777 0 35.546-4.68 51.745-14.032l12.437-7.182c1.235-.712 1.655-2.28.943-3.515-.711-1.225-2.28-1.654-3.514-.942l-12.437 7.182c-30.788 17.777-67.559 17.777-98.348 0-30.788-17.777-49.1736-49.619-49.1736-85.173 0-1.423-1.1485-2.572-2.5714-2.572-1.4228 0-2.5714 1.149-2.5714 2.572 0 37.414 19.3456 70.919 51.7454 89.622 16.2 9.351 33.977 14.031 51.745 14.031z" fill="#fcffe8" stroke="#e6e6e6" stroke-linecap="round" stroke-linejoin="round"/><path d="m187.374 160.864v97.062c0 3.06 1.637 5.889 4.285 7.423l84.051 48.531c2.648 1.534 5.923 1.534 8.571 0l84.051-48.531c2.648-1.534 4.286-4.363 4.286-7.423v-97.062c0-3.06-1.638-5.888-4.286-7.423l-84.051-48.531c-2.648-1.534-5.923-1.534-8.571 0l-84.051 48.531c-2.648 1.535-4.285 4.363-4.285 7.423z" fill="#ffde83" stroke="#3a3836" stroke-linecap="round" stroke-linejoin="round"/></g><path d="m255.541 133.462c0 11.58-9.42 21-20.999 21-9.232 0-17.092-5.992-19.895-14.289l35.64-20.588c3.266 3.703 5.254 8.563 5.254 13.877z" fill="#e6e6e6"/><path d="m187.374 160.864v97.062c0 3.06 1.637 5.889 4.285 7.423l84.051 48.531c2.648 1.534 5.923 1.534 8.571 0l84.051-48.531c2.648-1.534 4.286-4.363 4.286-7.423v-97.062c0-3.06-1.638-5.888-4.286-7.423l-84.051-48.531c-2.648-1.534-5.923-1.534-8.571 0l-84.051 48.531c-2.648 1.535-4.285 4.363-4.285 7.423z" stroke="#3a3836" stroke-linecap="round" stroke-linejoin="round" stroke-width="2"/><path d="m538.122 109.976h-95.982c-9.468 0-17.143 7.675-17.143 17.143v95.982c0 9.467 7.675 17.142 17.143 17.142h95.982c9.468 0 17.143-7.675 17.143-17.142v-95.982c0-9.468-7.675-17.143-17.143-17.143z" fill="#fcffe8" stroke="#3a3836" stroke-linejoin="round" stroke-width="2"/><path d="m21.878 308.814h95.982c9.468 0 17.143-7.675 17.143-17.142v-95.982c0-9.468-7.675-17.143-17.143-17.143h-95.982c-9.4677 0-17.14271 7.675-17.14271 17.143v95.982c0 9.467 7.67501 17.142 17.14271 17.142z" fill="#fcffe8" stroke="#3a3836" stroke-linejoin="round" stroke-width="2"/><path d="m532.971 135.21h-85.688c-2.014 0-3.651 1.474-3.651 3.274v73.26c0 1.808 1.637 3.274 3.651 3.274h85.688c2.014 0 3.651-1.474 3.651-3.274v-73.26c0-1.808-1.637-3.274-3.651-3.274z" fill="#fff" stroke="#3a3836" stroke-linecap="round" stroke-linejoin="round" stroke-width="2"/><path d="m532.971 135.21h-85.688c-2.014 0-3.651 1.474-3.651 3.274v73.26c0 1.808 1.637 3.274 3.651 3.274h85.688c2.014 0 3.651-1.474 3.651-3.274v-73.26c0-1.808-1.637-3.274-3.651-3.274z" stroke="#3a3836" stroke-linecap="round" stroke-linejoin="round" stroke-width="2"/><path d="m490.131 197.146c9.565 0 17.322-7.757 17.322-17.322 0-9.566-7.757-17.323-17.322-17.323-9.566 0-17.323 7.757-17.323 17.323 0 9.565 7.757 17.322 17.323 17.322z" fill="url(#b)"/><path d="m490.131 197.146c9.565 0 17.322-7.757 17.322-17.322 0-9.566-7.757-17.323-17.322-17.323-9.566 0-17.323 7.757-17.323 17.323 0 9.565 7.757 17.322 17.323 17.322z" stroke="#3a3836" stroke-linecap="round" stroke-linejoin="round" stroke-width="2"/><path d="m536.622 138.485v10.603h-92.999v-10.603c0-1.809 1.646-3.283 3.66-3.283h85.696c2.014 0 3.652 1.474 3.652 3.283z" fill="url(#c)" stroke="#3a3836" stroke-width="2"/><path d="m452.074 144.288c1.175 0 2.143-.943 2.143-2.143s-.943-2.143-2.143-2.143-2.143.943-2.143 2.143.943 2.143 2.143 2.143z" fill="#3a3836"/><path d="m460.097 144.288c1.174 0 2.143-.943 2.143-2.143s-.943-2.143-2.143-2.143-2.143.943-2.143 2.143.943 2.143 2.143 2.143z" fill="#3a3836"/><path d="m468.12 144.288c1.174 0 2.143-.943 2.143-2.143s-.943-2.143-2.143-2.143-2.143.943-2.143 2.143.943 2.143 2.143 2.143z" fill="#3a3836"/><path d="m109.074 257.387v-39.094c0-3.368-2.725-6.094-6.094-6.094h-29.2882c-.9257 0-1.8171-.317-2.5371-.892l-10.877-8.699c-1.44-1.149-3.2314-1.783-5.0743-1.783h-20.7598c-3.3685 0-6.0942 2.725-6.0942 6.094v67.774c0 3.368 2.7257 6.094 6.0942 6.094h74.6304z" fill="#fff" stroke="#3a3836" stroke-width="2"/><path d="m117.646 265.204-5.443-.677c-.352-1.32-.883-2.589-1.569-3.78l3.369-4.337c.103-.129.154-.3.146-.463-.009-.172-.086-.326-.198-.446l-3.891-3.891c-.12-.12-.274-.189-.446-.197-.162-.009-.334.042-.462.145l-4.338 3.369c-1.182-.686-2.451-1.209-3.771-1.56l-.677-5.452c-.017-.162-.103-.317-.223-.428-.12-.112-.2914-.172-.4543-.172h-5.5028c-.1714 0-.3257.06-.4542.172-.1286.111-.2058.266-.2315.428l-.6771 5.452c-1.32.351-2.5886.883-3.78 1.568l-4.3371-3.368c-.1286-.103-.3-.154-.4628-.146-.1629.009-.3257.086-.4457.197l-3.8914 3.892c-.12.12-.1886.274-.1972.445-.0086.172.0429.335.1457.463l3.3686 4.337c-.6857 1.183-1.2086 2.452-1.56 3.772l-5.4514.677c-.1628.017-.3171.103-.4286.223-.1114.128-.1714.291-.1714.454v5.503c0 .171.06.325.1714.454.1115.129.2658.206.4286.231l5.4514.678c.3514 1.32.8828 2.588 1.56 3.78l-3.3686 4.337c-.1028.128-.1543.3-.1457.463.0086.171.0857.325.1972.445l3.8914 3.892c.12.12.2742.188.4457.197.1714.008.3342-.043.4628-.146l4.3371-3.368c1.1829.685 2.4514 1.208 3.78 1.568l.6771 5.443c.0172.163.1029.317.2229.428.1286.112.2828.172.4543.172h5.5028c.1714 0 .3258-.06.4538-.172.129-.111.206-.265.232-.428l.677-5.443c1.32-.351 2.589-.883 3.78-1.568l4.337 3.368c.129.103.3.154.463.146.171-.009.326-.086.446-.197l3.891-3.892c.12-.12.189-.274.197-.445.009-.172-.043-.335-.146-.463l-3.368-4.337c.686-1.183 1.208-2.46 1.568-3.78l5.443-.678c.163-.017.317-.102.429-.231.111-.129.171-.283.171-.454v-5.503c0-.171-.06-.326-.171-.454-.112-.129-.266-.206-.429-.232zm-20.7172 10.997c-1.5 0-2.9571-.446-4.2-1.277-1.2428-.832-2.2114-2.015-2.7857-3.395-.5743-1.379-.72-2.905-.4286-4.371.2915-1.466 1.0115-2.82 2.0743-3.874 1.0543-1.054 2.4086-1.783 3.8743-2.074 1.4657-.292 2.9914-.146 4.3713.428 1.3796.574 2.5626 1.543 3.3946 2.786.831 1.243 1.277 2.708 1.277 4.2 0 2.005-.797 3.934-2.22 5.348-1.423 1.423-3.343 2.22-5.3487 2.22z" fill="url(#d)" stroke="#3a3836" stroke-width="2"/><path d="m109.074 218.293v9.951h-80.7246v-21.316c0-3.369 2.7257-6.103 6.0942-6.103h20.7684c1.8428 0 3.6342.634 5.0742 1.783l10.8771 8.708c.72.574 1.6114.891 2.5285.891h29.2882c3.369 0 6.103 2.726 6.103 6.095z" fill="url(#e)"/><path d="m109.074 218.293v9.951h-80.7246v-21.316c0-3.369 2.7257-6.103 6.0942-6.103h20.7684c1.8428 0 3.6342.634 5.0742 1.783l10.8771 8.708c.72.574 1.6114.891 2.5285.891h29.2882c3.369 0 6.103 2.726 6.103 6.095z" fill="url(#e)" stroke="#3a3836" stroke-width="2"/><path d="m311.392 180.356h-62.793c-10.964 0-19.852 8.888-19.852 19.851v18.377c0 10.964 8.888 19.851 19.852 19.851h62.793c10.964 0 19.852-8.887 19.852-19.851v-18.377c0-10.963-8.888-19.851-19.852-19.851z" fill="#fff"/><path d="m311.392 239.447h-62.793c-11.503 0-20.863-9.36-20.863-20.863v-18.377c0-11.502 9.36-20.862 20.863-20.862h62.793c11.503 0 20.863 9.36 20.863 20.862v18.377c0 11.503-9.36 20.863-20.863 20.863zm-62.793-58.079c-10.389 0-18.84 8.451-18.84 18.839v18.377c0 10.389 8.451 18.84 18.84 18.84h62.793c10.389 0 18.84-8.451 18.84-18.84v-18.377c0-10.388-8.451-18.839-18.84-18.839z" fill="#3a3836"/><path d="m255.293 230.507h-6.454c-6.917 0-12.549-5.632-12.549-12.54v-6.292c0-.557.455-1.011 1.012-1.011s1.011.454 1.011 1.011v6.292c0 5.803 4.723 10.525 10.526 10.525h6.454c.557 0 1.011.455 1.011 1.012s-.454 1.011-1.011 1.011z" fill="#3a3836"/><path d="m263.907 230.507h-2.305c-.558 0-1.012-.454-1.012-1.011s.454-1.012 1.012-1.012h2.305c.557 0 1.012.455 1.012 1.012s-.455 1.011-1.012 1.011z" fill="#3a3836"/><path d="m322.424 208.17c-.557 0-1.011-.454-1.011-1.011v-6.335c0-5.802-4.723-10.525-10.526-10.525h-6.454c-.557 0-1.012-.455-1.012-1.012s.455-1.011 1.012-1.011h6.454c6.917 0 12.54 5.631 12.54 12.548v6.335c0 .557-.454 1.011-1.011 1.011z" fill="#3a3836"/><path d="m298.124 190.299h-2.306c-.557 0-1.011-.455-1.011-1.012s.454-1.011 1.011-1.011h2.306c.557 0 1.011.454 1.011 1.011s-.454 1.012-1.011 1.012z" fill="#3a3836"/><path d="m345.909 234.578c-.437 1.988-1.543 3.762-3.12 5.04-1.586 1.277-3.557 1.971-5.588 1.971-2.006 0-3.952-.703-5.52-1.971-.617-.48-1.432-.609-2.16-.335-.729.275-1.269.909-1.415 1.672-.497 2.76-2.271 5.125-4.782 6.385-2.512 1.252-5.469 1.252-7.972 0-2.511-1.251-4.285-3.617-4.783-6.385-.137-.772-.677-1.415-1.414-1.689-.248-.094-.514-.146-.78-.146-.506 0-.994.172-1.388.489-1.56 1.269-3.515 1.971-5.529 1.98-3.188 0-6.146-1.706-7.74-4.466-1.594-2.768-1.594-6.171 0-8.94 1.594-2.768 4.543-4.465 7.74-4.465 2.006 0 3.951.703 5.52 1.971.617.48 1.431.609 2.16.334.729-.274 1.269-.908 1.414-1.671.497-2.76 2.272-5.126 4.783-6.386 2.512-1.251 5.469-1.251 7.971 0 2.512 1.252 4.286 3.618 4.783 6.386.137.771.677 1.414 1.415 1.689.737.274 1.56.145 2.177-.343 1.56-1.269 3.514-1.972 5.528-1.98 2.297 0 4.509.9 6.163 2.494s2.64 3.771 2.734 6.069c-.017.497-.025 1.002-.077 1.491-.017.103-.086.634-.111.797z" fill="#fff"/><path d="m319.33 249.295c-1.526 0-3.052-.351-4.44-1.046-2.777-1.388-4.775-4.045-5.323-7.105-.077-.42-.369-.772-.772-.926-.385-.146-.857-.077-1.191.189-1.723 1.405-3.917 2.185-6.154 2.194-3.549 0-6.849-1.903-8.614-4.972-1.775-3.068-1.775-6.882 0-9.942 1.774-3.069 5.074-4.972 8.614-4.972 2.237.009 4.414.789 6.154 2.195.317.248.771.325 1.174.171.395-.146.695-.497.772-.917.557-3.052 2.545-5.709 5.323-7.097 2.777-1.389 6.102-1.389 8.879 0 2.778 1.388 4.775 4.045 5.323 7.105.077.42.377.78.772.926.394.146.857.077 1.191-.188 1.723-1.406 3.909-2.186 6.146-2.195 2.58.009 5.014.995 6.874 2.777 1.86 1.783 2.931 4.183 3.043 6.755v.214c-.017.48-.034.951-.077 1.423-.035.257-.095.703-.12.857 0 .026 0 .043-.009.069-.488 2.202-1.714 4.191-3.471 5.605s-3.969 2.194-6.223 2.203c-2.237-.009-4.423-.789-6.154-2.194-.326-.249-.772-.326-1.175-.172-.394.146-.694.497-.771.917-.557 3.052-2.546 5.709-5.323 7.098-1.388.694-2.914 1.045-4.44 1.045zm-10.963-11.168c.394 0 .771.068 1.14.205 1.063.403 1.851 1.337 2.048 2.46.438 2.435 2.023 4.552 4.243 5.657 2.212 1.106 4.86 1.106 7.072 0 2.211-1.105 3.797-3.222 4.242-5.657.215-1.114.995-2.048 2.049-2.443 1.054-.394 2.254-.205 3.146.489 1.388 1.123 3.12 1.74 4.894 1.749 1.791 0 3.557-.626 4.954-1.749 1.389-1.123 2.374-2.691 2.76-4.44.026-.163.077-.548.094-.703.043-.437.06-.874.069-1.303v-.137c-.077-1.971-.943-3.883-2.417-5.305-1.474-1.423-3.42-2.212-5.469-2.212-1.765 0-3.505.626-4.885 1.749-.9.703-2.1.891-3.163.505-1.063-.402-1.852-1.345-2.057-2.46-.437-2.434-2.023-4.551-4.243-5.657-2.212-1.105-4.86-1.105-7.071 0-2.212 1.106-3.798 3.223-4.243 5.657-.215 1.115-.995 2.049-2.049 2.443-1.054.395-2.254.206-3.146-.488-1.388-1.123-3.12-1.749-4.894-1.749-2.82 0-5.451 1.517-6.857 3.96-1.414 2.443-1.414 5.477 0 7.929 1.414 2.442 4.046 3.96 6.866 3.96 1.774 0 3.514-.626 4.885-1.749.583-.463 1.295-.711 2.023-.711z" fill="#3a3836"/><path d="m246.524 212.087 3.086-.617c.446 2.391 2.074 3.788 4.663 3.788 2.16 0 3.283-.84 3.283-2.194s-.986-2.074-4.157-2.554c-4.663-.729-6.155-2.614-6.155-5.169 0-2.974 2.195-4.885 6.292-4.885 4.44 0 6.24 2.391 6.883 5.477l-3.146.643c-.531-2.22-1.492-3.403-3.874-3.403-1.886 0-2.923.84-2.923 2.108 0 1.123.617 1.937 4.328 2.555 4.749.754 6.009 2.725 6.009 5.108 0 3.034-2.109 5.083-6.737 5.083-5.109-.026-7.166-2.7-7.56-5.957z" fill="#f2b53f"/><path d="m262.698 209.199c0-5.032 3.369-8.735 8.623-8.735 5.255 0 8.649 3.712 8.649 8.735 0 5.022-3.232 8.845-8.649 8.845s-8.623-3.788-8.623-8.845zm14.075-.026c0-3.232-1.912-5.812-5.452-5.812s-5.451 2.589-5.451 5.812c0 3.54 1.886 5.983 5.451 5.983 3.566 0 5.452-2.443 5.452-5.983z" fill="#f2b53f"/><path d="m293.307 213.493h-7.243l-1.577 4.183h-3.317l6.737-16.851h3.651l6.737 16.851h-3.454l-1.543-4.183zm-6.232-2.614h5.255l-.729-1.963c-.617-1.603-1.26-3.343-1.8-4.946h-.197c-.532 1.603-1.183 3.343-1.8 4.946z" fill="#f2b53f"/><path d="m303.421 211.838v5.846h-3.206v-16.851h6.549c4.046 0 6.12 1.851 6.12 5.502 0 3.146-2.194 5.503-6.009 5.503zm0-8.177v5.34h3.12c1.997 0 3.034-.84 3.034-2.666 0-1.825-.925-2.665-3.085-2.665h-3.06z" fill="#f2b53f"/><path d="m233.685 149.319c11.125 0 20.142-9.018 20.142-20.143 0-11.126-9.017-20.143-20.142-20.143-11.126 0-20.143 9.017-20.143 20.143 0 11.125 9.017 20.143 20.143 20.143z" fill="#fcffe8" stroke="#3a3836" stroke-linecap="round" stroke-linejoin="round" stroke-width="2"/><path d="m234.087 125.182c2.443 0 4.449-1.997 4.449-4.449 0-2.451-1.997-4.448-4.449-4.448-2.451 0-4.448 1.997-4.448 4.448 0 2.452 1.997 4.449 4.448 4.449z" fill="url(#f)" stroke="#3a3836" stroke-miterlimit="10" stroke-width="2"/><path d="m234.087 125.182c2.443 0 4.449-1.997 4.449-4.449 0-2.451-1.997-4.448-4.449-4.448-2.451 0-4.448 1.997-4.448 4.448 0 2.452 1.997 4.449 4.448 4.449z" stroke="#3a3836" stroke-linecap="round" stroke-linejoin="round" stroke-width="2"/><path d="m230.042 130.427 2.185-.497c1.398-.317 2.675.891 2.435 2.297l-1.303 7.749c-.257 1.508 1.208 2.734 2.648 2.237l2.272-.789" stroke="#3a3836" stroke-linecap="round" stroke-linejoin="round" stroke-width="2"/></svg>